<?xml version="1.0" encoding="utf-8"?>
<!-- Generator: Adobe Illustrator 17.1.0, SVG Export Plug-In . SVG Version: 6.00 Build 0)  -->
<!DOCTYPE svg PUBLIC "-//W3C//DTD SVG 1.1//EN" "http://www.w3.org/Graphics/SVG/1.1/DTD/svg11.dtd">
<svg version="1.1" id="Ebene_1" xmlns="http://www.w3.org/2000/svg" xmlns:xlink="http://www.w3.org/1999/xlink" x="0px" y="0px"
	 viewBox="0 0 500 200" enable-background="new 0 0 500 200" xml:space="preserve">
<g>
	<path fill="#AAAAAA" d="M231.7,32.7v133.6H54.8v-57c0-5.1-2.3-9.8-6.2-13L21.1,74l26.2-17.7c4.7-3.1,7.4-8.3,7.4-14v-9.7h177
		 M236.5,18.7H50c-5.1,0-9.3,4.1-9.3,9.3v14.4c0,0.9-0.5,1.8-1.2,2.3l-28.1,19c-6.8,4.6-7.3,14.5-0.9,19.7l29.2,23.8
		c0.7,0.5,1,1.3,1,2.2v61.7c0,5.1,4.1,9.3,9.3,9.3h186.4c5.1,0,9.3-4.1,9.3-9.3V28C245.7,22.9,241.6,18.7,236.5,18.7L236.5,18.7z"/>
</g>
<g enable-background="new    ">
	<path fill="#AAAAAA" d="M285.3,121.2h3.8c0.9,2.3,1.4,4.5,1.4,6.7c0,2.1-0.1,3.7-0.4,4.7c-5,0.7-9,1.1-12,1.1
		c-4.8,0-8.3-1.2-10.5-3.6c-2.2-2.4-3.3-6.2-3.3-11.4V43l0.9-0.9h6.2c3.2,0,5.5,0.8,6.8,2.3s2,4.1,2,7.7v63.4
		C280.1,119.3,281.8,121.2,285.3,121.2z"/>
	<path fill="#AAAAAA" d="M343.4,77c5.8,5.9,8.8,14.3,8.8,25.5c0,4.9-0.6,9.4-1.9,13.4c-1.2,4-3,7.4-5.4,10.2c-2.3,2.8-5.3,5-8.7,6.5
		c-3.5,1.5-7.4,2.3-11.7,2.3c-4.4,0-8.3-0.8-11.7-2.3c-3.4-1.5-6.3-3.7-8.7-6.5c-2.3-2.8-4.1-6.2-5.4-10.2c-1.2-4-1.9-8.5-1.9-13.4
		c0-10,2.4-17.9,7.2-23.7c4.8-5.8,11.6-8.7,20.4-8.7C332.2,70,338.5,72.4,343.4,77z M324.4,82.2c-7.3,0-10.9,6.8-10.9,20.3
		c0,13.4,3.6,20.1,10.9,20.1s11-6.7,11-20.1C335.4,88.9,331.8,82.2,324.4,82.2z"/>
	<path fill="#AAAAAA" d="M402.1,76.1c2.3-3,5.7-4.8,10.3-5.3c1.2,0.8,2.3,2.1,3.3,3.7c1.1,1.6,1.7,3.2,2,4.6
		c-2.3,2-3.5,5.4-3.5,10.3v34.5c0,7.2-0.6,13.1-1.7,17.8c-1.2,4.7-2.9,8.4-5.2,11.2c-2.3,2.8-5.2,4.8-8.7,5.9
		c-3.5,1.1-7.6,1.7-12.3,1.7c-8.2,0-15.7-1.4-22.4-4.2c0-2,0.4-4.1,1.2-6.4c0.8-2.3,1.8-4.1,2.9-5.4c5.2,2.6,10.8,3.8,16.7,3.8
		c9.2,0,13.8-4.9,13.8-14.7v-4.8c-4.7,3.7-9.8,5.6-15.2,5.6c-7.3,0-12.7-2.8-16.4-8.5c-3.7-5.7-5.5-13.5-5.5-23.5
		c0-5,0.6-9.5,1.9-13.5s3-7.3,5.2-10.1c2.2-2.8,4.7-4.9,7.6-6.4s6-2.2,9.3-2.2C392.1,70,397.7,72.1,402.1,76.1z M398.5,115.4V87.3
		c-3.5-3.3-7-4.9-10.3-4.9s-5.9,1.7-7.7,5.2c-1.8,3.5-2.7,8.4-2.7,14.8s0.8,11.1,2.5,14.2c1.7,3,3.9,4.5,6.6,4.5
		C391.4,121.1,395.2,119.2,398.5,115.4z"/>
	<path fill="#AAAAAA" d="M473.5,77c5.8,5.9,8.8,14.3,8.8,25.5c0,4.9-0.6,9.4-1.9,13.4c-1.2,4-3,7.4-5.4,10.2c-2.3,2.8-5.3,5-8.7,6.5
		c-3.5,1.5-7.4,2.3-11.7,2.3c-4.4,0-8.3-0.8-11.7-2.3c-3.4-1.5-6.3-3.7-8.7-6.5c-2.3-2.8-4.1-6.2-5.4-10.2c-1.2-4-1.9-8.5-1.9-13.4
		c0-10,2.4-17.9,7.2-23.7c4.8-5.8,11.6-8.7,20.4-8.7C462.3,70,468.6,72.4,473.5,77z M454.6,82.2c-7.3,0-10.9,6.8-10.9,20.3
		c0,13.4,3.6,20.1,10.9,20.1s11-6.7,11-20.1C465.6,88.9,461.9,82.2,454.6,82.2z"/>
</g>
<g enable-background="new    ">
	<path fill="#AAAAAA" d="M103.3,95.1c0-6.7-2.1-10-6.4-10c-3.5,0.2-7.1,2.1-10.8,5.8V133c-2.5,0.4-5.2,0.6-8,0.6
		c-2.9,0-5.6-0.2-8-0.6V71.9l0.7-0.9h6.1c4.9,0,7.8,2.6,8.9,7.7c5.8-5.4,11.5-8,17.2-8c6.8,0,11.5,3,14.3,8.9
		c6.3-5.9,12.8-8.9,19.3-8.9c5.3,0,9.3,1.8,12.1,5.4s4.1,8.3,4.1,14v28.7c0,5.3,0.9,9.2,2.6,11.7c-2.9,2.3-6.1,3.5-9.6,3.5
		s-5.9-0.8-7.2-2.5c-1.3-1.6-2-4.2-2-7.5V95c0-6.6-2.2-9.9-6.6-9.9c-3.3,0-6.8,2-10.6,5.9v42c-2.5,0.4-5.2,0.6-8,0.6
		c-2.9,0-5.6-0.2-8-0.6V95.1H103.3z"/>
	<path fill="#AAAAAA" d="M217.7,73.3l-15.8,58.1c-2.7,9.8-6.2,17.1-10.3,21.8c-4.2,4.7-10.4,7-18.7,7c-4.6,0-9.1-0.8-13.5-2.3
		c-0.2-1.8,0.1-3.9,0.7-6.2c0.7-2.3,1.5-4.1,2.6-5.3c3.6,1.2,7,1.7,10.3,1.7c6.3,0,10.8-4.2,13.3-12.6l0.5-1.6
		c-3.1-0.1-5.6-0.7-7.4-1.7c-1.8-1.1-3.1-2.9-3.8-5.4L160.3,73c3.4-1.6,6.3-2.3,9-2.3c2.6,0,4.6,0.5,5.8,1.5c1.3,1,2.3,2.9,3,5.5
		l7.1,26.1c0.5,1.9,1.7,7.6,3.6,17.2c0.1,0.6,0.5,0.9,1.1,0.9L202,71.8c1.9-0.5,4.3-0.7,7.2-0.7s5.5,0.4,7.9,1.2L217.7,73.3z"/>
</g>
</svg>
