<?xml version="1.0" encoding="utf-8"?>
<!-- Generator: Adobe Illustrator 17.1.0, SVG Export Plug-In . SVG Version: 6.00 Build 0)  -->
<!DOCTYPE svg PUBLIC "-//W3C//DTD SVG 1.1//EN" "http://www.w3.org/Graphics/SVG/1.1/DTD/svg11.dtd">
<svg version="1.1" id="Ebene_1" xmlns="http://www.w3.org/2000/svg" xmlns:xlink="http://www.w3.org/1999/xlink" x="0px" y="0px"
	 viewBox="0 0 500 200" enable-background="new 0 0 500 200" xml:space="preserve">
<g enable-background="new    ">
	<path fill="#475B66" d="M274.2,135.1c-13.2,0-18.8-9.3-18.8-18.4V47.1h16.1v68.6c0,3.8,1.6,5.8,5.7,5.8h6.2v13.6H274.2z"/>
	<path fill="#475B66" d="M338.2,127.9c-4,4.2-10.5,7.9-20,7.9c-9.5,0-15.9-3.7-19.9-7.9c-5.8-6.1-7.3-13.3-7.3-25.1
		c0-11.6,1.5-18.9,7.3-25c4-4.2,10.4-7.9,19.9-7.9c9.5,0,16.1,3.7,20,7.9c5.8,6.1,7.3,13.3,7.3,25
		C345.5,114.6,344,121.9,338.2,127.9z M325.7,87.2c-1.9-1.9-4.3-2.8-7.5-2.8c-3.2,0-5.6,1-7.4,2.8c-3.3,3.3-3.7,8.9-3.7,15.6
		c0,6.7,0.4,12.4,3.7,15.7c1.9,1.9,4.2,2.8,7.4,2.8c3.2,0,5.7-1,7.5-2.8c3.3-3.3,3.7-9,3.7-15.7C329.4,96.1,329,90.6,325.7,87.2z"/>
	<path fill="#475B66" d="M383.1,159.4c-9.9,0-16.7-2-23.4-8.4l10-10.1c3.6,3.5,7.2,4.9,12.6,4.9c9.6,0,13-6.8,13-13.3v-6.6
		c-4.2,4.7-9,6.4-15.3,6.4c-6.3,0-11.7-2.1-15.3-5.7c-6.1-6.1-6.6-14.3-6.6-25.6c0-11.2,0.5-19.4,6.6-25.5c3.6-3.6,9.1-5.7,15.4-5.7
		c6.8,0,11.2,1.9,15.7,6.8v-6.1h15.6v62C411.4,148.2,400.4,159.4,383.1,159.4z M384.7,84.4c-9.5,0-10.5,8.2-10.5,16.7
		c0,8.5,1,16.8,10.5,16.8s10.6-8.3,10.6-16.8C395.3,92.6,394.2,84.4,384.7,84.4z"/>
	<path fill="#475B66" d="M473.9,127.9c-4,4.2-10.5,7.9-20,7.9c-9.5,0-15.9-3.7-19.9-7.9c-5.8-6.1-7.3-13.3-7.3-25.1
		c0-11.6,1.5-18.9,7.3-25c4-4.2,10.4-7.9,19.9-7.9c9.5,0,16.1,3.7,20,7.9c5.8,6.1,7.3,13.3,7.3,25
		C481.2,114.6,479.7,121.9,473.9,127.9z M461.4,87.2c-1.9-1.9-4.3-2.8-7.5-2.8c-3.2,0-5.6,1-7.4,2.8c-3.3,3.3-3.7,8.9-3.7,15.6
		c0,6.7,0.4,12.4,3.7,15.7c1.9,1.9,4.2,2.8,7.4,2.8c3.2,0,5.7-1,7.5-2.8c3.3-3.3,3.7-9,3.7-15.7C465.1,96.1,464.8,90.6,461.4,87.2z"
		/>
</g>
<path fill="#475B66" d="M239.7,161.9c0,10.2-8.3,18.5-18.5,18.5h-165c-10.2,0-18.5-8.3-18.5-18.5v-48.1c0-3.6-1.6-7.1-4.4-9.3
	L17.2,91.3C6,82.1,6.7,64.8,18.7,56.7l13.7-9.3c3.3-2.2,5.3-6,5.3-10v-0.3c0-10.2,8.3-18.5,18.5-18.5h165c10.2,0,18.5,8.3,18.5,18.5
	V161.9z"/>
<g enable-background="new    ">
	<path fill="#FFFFFF" d="M136.4,135.1V96.1c0-8.8-5.6-11.7-10.6-11.7c-4.9,0-10.8,3-10.8,11.4v39.3H99V96.1
		c0-8.8-5.6-11.7-10.6-11.7s-10.8,3-10.8,11.7v38.9H61.5V70.7h15.7v5.9c4.2-4.3,10.1-6.7,16.1-6.7c7.2,0,13,2.6,17.1,8.2
		c5.4-5.7,11.2-8.2,19.3-8.2c6.4,0,12.2,2.1,15.8,5.7c5.2,5.2,7,11.2,7,18.3v41.2H136.4z"/>
	<path fill="#FFFFFF" d="M193.8,145.5c-1.4,3.6-2.8,6.3-4.8,8.3c-3.7,3.7-8.5,4.9-13.8,4.9h-6.3v-14.5h3.7c4.6,0,6.4-1.1,8-5.8
		l2.7-7.9l-22-59.8h16.9l13.3,39.8l12.9-39.8h16.9L193.8,145.5z"/>
</g>
</svg>
